<svg xmlns="http://www.w3.org/2000/svg">
  <defs>
    <symbol id="arrow-path" fill="none" stroke="currentColor" stroke-width="1.5" viewBox="0 0 24 24">
      <path stroke-linecap="round" stroke-linejoin="round" d="M16 9h5v0M3 20v-5m0 0h5m-5 0 3 3a8 8 0 0 0 14-4M4 10a8 8 0 0 1 14-4l3 3m0-5v5"/>
    </symbol>
    <symbol id="clipboard" fill="none" stroke="currentColor" stroke-width="1.5" viewBox="0 0 24 24">
      <path stroke-linecap="round" stroke-linejoin="round" d="M16 4a2 2 0 0 0-2-2h-3C9 2 9 3 8 4m8 0s0 0 0 0v1a1 1 0 0 1-1 0H9a1 1 0 0 1-1 0v0-1m8 0h2l2 2v14a2 2 0 0 1-3 2H7a2 2 0 0 1-2-2V6l1-2a48 48 0 0 1 2 0"/>
    </symbol>
  </defs>
</svg>
